<svg width="31" height="31" viewBox="0 0 31 31" fill="none" xmlns="http://www.w3.org/2000/svg">
<path d="M22.1115 30.4209H8.14633C3.65538 30.4209 0 26.747 0 22.2307V8.19024C0 3.67391 3.65538 0 8.14633 0H22.1115C26.6024 0 30.2578 3.67391 30.2578 8.19024V22.2307C30.2578 26.747 26.6024 30.4209 22.1115 30.4209ZM8.14633 2.34007C4.93784 2.34007 2.32752 4.96446 2.32752 8.19024V22.2307C2.32752 25.4564 4.93784 28.0808 8.14633 28.0808H22.1115C25.32 28.0808 27.9303 25.4564 27.9303 22.2307V8.19024C27.9303 4.96446 25.32 2.34007 22.1115 2.34007H8.14633Z" fill="white"/>
<path d="M15.1463 23.4131C10.6554 23.4131 7 19.7391 7 15.2227C7 10.7062 10.6554 7.03223 15.1463 7.03223C19.6372 7.03223 23.2926 10.7062 23.2926 15.2227C23.2926 19.7391 19.6372 23.4131 15.1463 23.4131ZM15.1463 9.37235C11.9378 9.37235 9.32751 11.9968 9.32751 15.2227C9.32751 18.4485 11.9378 21.073 15.1463 21.073C18.3548 21.073 20.9651 18.4485 20.9651 15.2227C20.9651 11.9968 18.3548 9.37235 15.1463 9.37235Z" fill="white"/>
<path d="M24.7456 7.5293C25.7097 7.5293 26.4912 6.74339 26.4912 5.77393C26.4912 4.80446 25.7097 4.01855 24.7456 4.01855C23.7815 4.01855 23 4.80446 23 5.77393C23 6.74339 23.7815 7.5293 24.7456 7.5293Z" fill="white"/>
</svg>
