<svg width="102" height="18" viewBox="0 0 102 18" fill="none" xmlns="http://www.w3.org/2000/svg">
<path d="M0.617188 14.6562C0.617188 13.9271 0.864583 13.3151 1.35938 12.8203C1.85417 12.3125 2.52474 12.0586 3.37109 12.0586C4.23047 12.0586 4.90104 12.3125 5.38281 12.8203C5.8776 13.3151 6.125 13.9271 6.125 14.6562C6.125 15.3854 5.8776 15.9974 5.38281 16.4922C4.90104 16.987 4.23047 17.2344 3.37109 17.2344C2.52474 17.2344 1.85417 16.987 1.35938 16.4922C0.864583 15.9974 0.617188 15.3854 0.617188 14.6562ZM17.522 0.648438V17H14.7256V0.648438H17.522ZM22.6543 0.648438V2.89453H9.63818V0.648438H22.6543ZM35.6143 7.47656V9.71143H26.9331V7.47656H35.6143ZM27.6294 0.648438V17H24.8105V0.648438H27.6294ZM37.7817 0.648438V17H34.9741V0.648438H37.7817ZM51.8423 14.7651V17H43.1611V14.7651H51.8423ZM43.9585 0.648438V17H41.1396V0.648438H43.9585ZM50.708 7.47656V9.67773H43.1611V7.47656H50.708ZM51.7861 0.648438V2.89453H43.1611V0.648438H51.7861ZM66.0601 0.648438V17H63.2637V0.648438H66.0601ZM71.1924 0.648438V2.89453H58.1763V0.648438H71.1924ZM86.0728 8.375V9.27344C86.0728 10.5088 85.9118 11.6169 85.5898 12.5977C85.2679 13.5785 84.8075 14.4132 84.2085 15.1021C83.617 15.7909 82.9058 16.3187 82.0747 16.6855C81.2437 17.0449 80.3228 17.2246 79.312 17.2246C78.3088 17.2246 77.3916 17.0449 76.5605 16.6855C75.737 16.3187 75.022 15.7909 74.4155 15.1021C73.8091 14.4132 73.3374 13.5785 73.0005 12.5977C72.6711 11.6169 72.5063 10.5088 72.5063 9.27344V8.375C72.5063 7.13965 72.6711 6.03532 73.0005 5.06201C73.3299 4.08122 73.7941 3.24642 74.3931 2.55762C74.9995 1.86133 75.7145 1.3335 76.5381 0.974121C77.3691 0.607259 78.2863 0.423828 79.2896 0.423828C80.3003 0.423828 81.2212 0.607259 82.0522 0.974121C82.8833 1.3335 83.5983 1.86133 84.1973 2.55762C84.7962 3.24642 85.2567 4.08122 85.5786 5.06201C85.908 6.03532 86.0728 7.13965 86.0728 8.375ZM83.2539 9.27344V8.35254C83.2539 7.43913 83.1641 6.63428 82.9844 5.93799C82.8122 5.23421 82.5539 4.64648 82.2095 4.1748C81.8726 3.69564 81.457 3.33626 80.9629 3.09668C80.4688 2.84961 79.911 2.72607 79.2896 2.72607C78.6681 2.72607 78.1141 2.84961 77.6274 3.09668C77.1408 3.33626 76.7253 3.69564 76.3809 4.1748C76.0439 4.64648 75.7856 5.23421 75.606 5.93799C75.4263 6.63428 75.3364 7.43913 75.3364 8.35254V9.27344C75.3364 10.1868 75.4263 10.9954 75.606 11.6992C75.7856 12.403 76.0477 12.9982 76.3921 13.4849C76.744 13.964 77.1632 14.3271 77.6499 14.5742C78.1366 14.8138 78.6906 14.9336 79.312 14.9336C79.9409 14.9336 80.4987 14.8138 80.9854 14.5742C81.472 14.3271 81.8838 13.964 82.2207 13.4849C82.5576 12.9982 82.8122 12.403 82.9844 11.6992C83.1641 10.9954 83.2539 10.1868 83.2539 9.27344ZM95.1021 10.9019H90.8457V8.66699H95.1021C95.8433 8.66699 96.4422 8.5472 96.8989 8.30762C97.3556 8.06803 97.6888 7.73861 97.8984 7.31934C98.1156 6.89258 98.2241 6.40592 98.2241 5.85938C98.2241 5.34277 98.1156 4.85986 97.8984 4.41064C97.6888 3.95394 97.3556 3.58708 96.8989 3.31006C96.4422 3.03304 95.8433 2.89453 95.1021 2.89453H91.7104V17H88.8916V0.648438H95.1021C96.3674 0.648438 97.4417 0.873047 98.3252 1.32227C99.2161 1.764 99.8937 2.37793 100.358 3.16406C100.822 3.94271 101.054 4.83366 101.054 5.83691C101.054 6.89258 100.822 7.7985 100.358 8.55469C99.8937 9.31087 99.2161 9.89111 98.3252 10.2954C97.4417 10.6997 96.3674 10.9019 95.1021 10.9019Z" fill="white"/>
</svg>
