<svg width="30" height="25" viewBox="0 0 30 25" fill="none" xmlns="http://www.w3.org/2000/svg">
<path d="M30 2.85104C28.8977 3.33827 27.7123 3.66309 26.4614 3.81699C27.7329 3.06381 28.7115 1.8624 29.1706 0.44255C27.9809 1.13829 26.6626 1.64963 25.2604 1.91913C24.1403 0.734746 22.5426 0 20.773 0C17.3737 0 14.6176 2.72551 14.6176 6.08648C14.6176 6.56236 14.6738 7.02548 14.7783 7.47512C9.66408 7.21909 5.12769 4.79287 2.09301 1.11063C1.55998 2.01062 1.26007 3.0638 1.26007 4.17585C1.26007 6.2886 2.34388 8.14887 3.99697 9.24461C2.98778 9.21411 2.03828 8.93397 1.20677 8.48433C1.20677 8.50277 1.20677 8.52972 1.20677 8.55596C1.20677 11.5084 3.32891 13.9673 6.14186 14.5268C5.62802 14.6673 5.08434 14.7453 4.52431 14.7453C4.12703 14.7453 3.7397 14.7006 3.36445 14.6332C4.14764 17.046 6.41974 18.8098 9.11187 18.8623C7.00536 20.492 4.35232 21.4679 1.46759 21.4679C0.969393 21.4679 0.481854 21.4395 0 21.3814C2.72695 23.1041 5.96276 24.1133 9.43665 24.1133C20.7559 24.1133 26.949 14.8375 26.949 6.79002C26.949 6.52619 26.9404 6.26378 26.9284 6.00421C28.1365 5.15244 29.1777 4.07869 30 2.85104Z" fill="url(#paint0_linear_1_64)"/>
<defs>
<linearGradient id="paint0_linear_1_64" x1="4.58258" y1="0.930489" x2="26.1831" y2="22.5762" gradientUnits="userSpaceOnUse">
<stop stop-color="white"/>
<stop offset="1" stop-color="white"/>
</linearGradient>
</defs>
</svg>
